<mxfile host="app.diagrams.net" modified="2021-04-30T12:04:54.990Z" agent="5.0 (Windows NT 10.0; Win64; x64) AppleWebKit/537.36 (KHTML, like Gecko) Chrome/90.0.4430.85 Safari/537.36 Edg/90.0.818.49" etag="-TYjFOmYx0drO2AVkxeB" version="14.6.9" type="github">
  <diagram name="Page-1" id="42789a77-a242-8287-6e28-9cd8cfd52e62">
    <mxGraphModel dx="2773" dy="2634" grid="1" gridSize="10" guides="1" tooltips="1" connect="1" arrows="1" fold="1" page="1" pageScale="1" pageWidth="1100" pageHeight="850" background="#ffffff" math="0" shadow="0">
      <root>
        <mxCell id="0" />
        <mxCell id="1" parent="0" />
        <mxCell id="_6P1N98d5VD0kqK_qhg6-78" value="" style="rounded=0;whiteSpace=wrap;html=1;" vertex="1" parent="1">
          <mxGeometry x="530" y="-1140" width="460" height="60" as="geometry" />
        </mxCell>
        <mxCell id="_6P1N98d5VD0kqK_qhg6-70" value="" style="rounded=0;whiteSpace=wrap;html=1;" vertex="1" parent="1">
          <mxGeometry x="340" y="-1070" width="80" height="130" as="geometry" />
        </mxCell>
        <mxCell id="_6P1N98d5VD0kqK_qhg6-68" value="" style="rounded=0;whiteSpace=wrap;html=1;" vertex="1" parent="1">
          <mxGeometry x="130" y="-1070" width="80" height="130" as="geometry" />
        </mxCell>
        <mxCell id="_6P1N98d5VD0kqK_qhg6-67" value="" style="rounded=0;whiteSpace=wrap;html=1;" vertex="1" parent="1">
          <mxGeometry x="40" y="-1070" width="80" height="130" as="geometry" />
        </mxCell>
        <mxCell id="_6P1N98d5VD0kqK_qhg6-66" value="" style="rounded=0;whiteSpace=wrap;html=1;" vertex="1" parent="1">
          <mxGeometry x="30" y="-1140" width="410" height="60" as="geometry" />
        </mxCell>
        <mxCell id="_6P1N98d5VD0kqK_qhg6-3" value="" style="rounded=0;whiteSpace=wrap;html=1;" vertex="1" parent="1">
          <mxGeometry x="460" y="-1590" width="130" height="40" as="geometry" />
        </mxCell>
        <mxCell id="_6P1N98d5VD0kqK_qhg6-7" value="" style="rounded=0;whiteSpace=wrap;html=1;" vertex="1" parent="1">
          <mxGeometry x="460" y="-1510" width="130" height="40" as="geometry" />
        </mxCell>
        <mxCell id="_6P1N98d5VD0kqK_qhg6-8" value="" style="rounded=0;whiteSpace=wrap;html=1;" vertex="1" parent="1">
          <mxGeometry x="220" y="-1420" width="130" height="40" as="geometry" />
        </mxCell>
        <mxCell id="_6P1N98d5VD0kqK_qhg6-10" value="" style="endArrow=classic;html=1;entryX=0.5;entryY=1;entryDx=0;entryDy=0;exitX=0.5;exitY=0;exitDx=0;exitDy=0;" edge="1" parent="1" source="_6P1N98d5VD0kqK_qhg6-8" target="_6P1N98d5VD0kqK_qhg6-7">
          <mxGeometry width="50" height="50" relative="1" as="geometry">
            <mxPoint x="510" y="-1310" as="sourcePoint" />
            <mxPoint x="560" y="-1360" as="targetPoint" />
          </mxGeometry>
        </mxCell>
        <mxCell id="_6P1N98d5VD0kqK_qhg6-11" value="" style="rounded=0;whiteSpace=wrap;html=1;" vertex="1" parent="1">
          <mxGeometry x="220" y="-1340" width="130" height="40" as="geometry" />
        </mxCell>
        <mxCell id="_6P1N98d5VD0kqK_qhg6-12" value="" style="rounded=0;whiteSpace=wrap;html=1;" vertex="1" parent="1">
          <mxGeometry x="220" y="-1260" width="130" height="40" as="geometry" />
        </mxCell>
        <mxCell id="_6P1N98d5VD0kqK_qhg6-13" value="" style="rounded=0;whiteSpace=wrap;html=1;" vertex="1" parent="1">
          <mxGeometry x="220" y="-1190" width="130" height="40" as="geometry" />
        </mxCell>
        <mxCell id="_6P1N98d5VD0kqK_qhg6-14" value="" style="rounded=0;whiteSpace=wrap;html=1;" vertex="1" parent="1">
          <mxGeometry x="700" y="-1420" width="130" height="40" as="geometry" />
        </mxCell>
        <mxCell id="_6P1N98d5VD0kqK_qhg6-15" value="" style="rounded=0;whiteSpace=wrap;html=1;" vertex="1" parent="1">
          <mxGeometry x="700" y="-1340" width="130" height="40" as="geometry" />
        </mxCell>
        <mxCell id="_6P1N98d5VD0kqK_qhg6-16" value="" style="rounded=0;whiteSpace=wrap;html=1;" vertex="1" parent="1">
          <mxGeometry x="700" y="-1260" width="130" height="40" as="geometry" />
        </mxCell>
        <mxCell id="_6P1N98d5VD0kqK_qhg6-17" value="" style="rounded=0;whiteSpace=wrap;html=1;" vertex="1" parent="1">
          <mxGeometry x="700" y="-1190" width="130" height="40" as="geometry" />
        </mxCell>
        <mxCell id="_6P1N98d5VD0kqK_qhg6-18" value="" style="endArrow=classic;html=1;exitX=0.5;exitY=0;exitDx=0;exitDy=0;" edge="1" parent="1" source="_6P1N98d5VD0kqK_qhg6-14">
          <mxGeometry width="50" height="50" relative="1" as="geometry">
            <mxPoint x="510" y="-1310" as="sourcePoint" />
            <mxPoint x="520" y="-1470" as="targetPoint" />
          </mxGeometry>
        </mxCell>
        <mxCell id="_6P1N98d5VD0kqK_qhg6-19" value="" style="rounded=0;whiteSpace=wrap;html=1;" vertex="1" parent="1">
          <mxGeometry x="50" y="-1130" width="60" height="40" as="geometry" />
        </mxCell>
        <mxCell id="_6P1N98d5VD0kqK_qhg6-24" value="" style="rounded=0;whiteSpace=wrap;html=1;" vertex="1" parent="1">
          <mxGeometry x="140" y="-1130" width="60" height="40" as="geometry" />
        </mxCell>
        <mxCell id="_6P1N98d5VD0kqK_qhg6-25" value="" style="rounded=0;whiteSpace=wrap;html=1;" vertex="1" parent="1">
          <mxGeometry x="350" y="-1130" width="60" height="40" as="geometry" />
        </mxCell>
        <mxCell id="_6P1N98d5VD0kqK_qhg6-26" value="" style="rounded=0;whiteSpace=wrap;html=1;" vertex="1" parent="1">
          <mxGeometry x="50" y="-1060" width="60" height="40" as="geometry" />
        </mxCell>
        <mxCell id="_6P1N98d5VD0kqK_qhg6-27" value="" style="rounded=0;whiteSpace=wrap;html=1;" vertex="1" parent="1">
          <mxGeometry x="140" y="-1060" width="60" height="40" as="geometry" />
        </mxCell>
        <mxCell id="_6P1N98d5VD0kqK_qhg6-28" value="" style="rounded=0;whiteSpace=wrap;html=1;" vertex="1" parent="1">
          <mxGeometry x="350" y="-1060" width="60" height="40" as="geometry" />
        </mxCell>
        <mxCell id="_6P1N98d5VD0kqK_qhg6-29" value="" style="rounded=0;whiteSpace=wrap;html=1;" vertex="1" parent="1">
          <mxGeometry x="50" y="-990" width="60" height="40" as="geometry" />
        </mxCell>
        <mxCell id="_6P1N98d5VD0kqK_qhg6-30" value="" style="rounded=0;whiteSpace=wrap;html=1;" vertex="1" parent="1">
          <mxGeometry x="140" y="-990" width="60" height="40" as="geometry" />
        </mxCell>
        <mxCell id="_6P1N98d5VD0kqK_qhg6-31" value="" style="rounded=0;whiteSpace=wrap;html=1;" vertex="1" parent="1">
          <mxGeometry x="350" y="-990" width="60" height="40" as="geometry" />
        </mxCell>
        <mxCell id="_6P1N98d5VD0kqK_qhg6-32" value="" style="rounded=0;whiteSpace=wrap;html=1;" vertex="1" parent="1">
          <mxGeometry x="50" y="-920" width="60" height="40" as="geometry" />
        </mxCell>
        <mxCell id="_6P1N98d5VD0kqK_qhg6-33" value="" style="rounded=0;whiteSpace=wrap;html=1;" vertex="1" parent="1">
          <mxGeometry x="140" y="-920" width="60" height="40" as="geometry" />
        </mxCell>
        <mxCell id="_6P1N98d5VD0kqK_qhg6-34" value="" style="rounded=0;whiteSpace=wrap;html=1;" vertex="1" parent="1">
          <mxGeometry x="350" y="-920" width="60" height="40" as="geometry" />
        </mxCell>
        <mxCell id="_6P1N98d5VD0kqK_qhg6-44" value="" style="rounded=0;whiteSpace=wrap;html=1;" vertex="1" parent="1">
          <mxGeometry x="560" y="-1130" width="60" height="40" as="geometry" />
        </mxCell>
        <mxCell id="_6P1N98d5VD0kqK_qhg6-45" value="" style="rounded=0;whiteSpace=wrap;html=1;" vertex="1" parent="1">
          <mxGeometry x="650" y="-1130" width="60" height="40" as="geometry" />
        </mxCell>
        <mxCell id="_6P1N98d5VD0kqK_qhg6-46" value="" style="rounded=0;whiteSpace=wrap;html=1;" vertex="1" parent="1">
          <mxGeometry x="860" y="-1130" width="60" height="40" as="geometry" />
        </mxCell>
        <mxCell id="_6P1N98d5VD0kqK_qhg6-56" value="" style="rounded=0;whiteSpace=wrap;html=1;" vertex="1" parent="1">
          <mxGeometry x="980" y="-1040" width="60" height="40" as="geometry" />
        </mxCell>
        <mxCell id="_6P1N98d5VD0kqK_qhg6-57" value="" style="rounded=0;whiteSpace=wrap;html=1;" vertex="1" parent="1">
          <mxGeometry x="-130" y="-910" width="60" height="40" as="geometry" />
        </mxCell>
        <mxCell id="_6P1N98d5VD0kqK_qhg6-58" value="" style="endArrow=classic;html=1;exitX=0.5;exitY=0;exitDx=0;exitDy=0;entryX=0.5;entryY=1;entryDx=0;entryDy=0;" edge="1" parent="1" source="_6P1N98d5VD0kqK_qhg6-11" target="_6P1N98d5VD0kqK_qhg6-8">
          <mxGeometry width="50" height="50" relative="1" as="geometry">
            <mxPoint x="510" y="-930" as="sourcePoint" />
            <mxPoint x="560" y="-980" as="targetPoint" />
          </mxGeometry>
        </mxCell>
        <mxCell id="_6P1N98d5VD0kqK_qhg6-60" value="" style="endArrow=classic;html=1;exitX=0.5;exitY=0;exitDx=0;exitDy=0;entryX=0.5;entryY=1;entryDx=0;entryDy=0;" edge="1" parent="1" source="_6P1N98d5VD0kqK_qhg6-12" target="_6P1N98d5VD0kqK_qhg6-11">
          <mxGeometry width="50" height="50" relative="1" as="geometry">
            <mxPoint x="304.99999999999955" y="-1320.0000000000002" as="sourcePoint" />
            <mxPoint x="304.99999999999955" y="-1360.0000000000002" as="targetPoint" />
          </mxGeometry>
        </mxCell>
        <mxCell id="_6P1N98d5VD0kqK_qhg6-61" value="" style="endArrow=classic;html=1;exitX=0.5;exitY=0;exitDx=0;exitDy=0;entryX=0.5;entryY=1;entryDx=0;entryDy=0;" edge="1" parent="1" source="_6P1N98d5VD0kqK_qhg6-13" target="_6P1N98d5VD0kqK_qhg6-12">
          <mxGeometry width="50" height="50" relative="1" as="geometry">
            <mxPoint x="314.99999999999955" y="-1310.0000000000002" as="sourcePoint" />
            <mxPoint x="314.99999999999955" y="-1350.0000000000002" as="targetPoint" />
          </mxGeometry>
        </mxCell>
        <mxCell id="_6P1N98d5VD0kqK_qhg6-62" value="" style="endArrow=classic;html=1;entryX=0.5;entryY=1;entryDx=0;entryDy=0;" edge="1" parent="1" source="_6P1N98d5VD0kqK_qhg6-15" target="_6P1N98d5VD0kqK_qhg6-14">
          <mxGeometry width="50" height="50" relative="1" as="geometry">
            <mxPoint x="324.99999999999955" y="-1300.0000000000002" as="sourcePoint" />
            <mxPoint x="324.99999999999955" y="-1340.0000000000002" as="targetPoint" />
          </mxGeometry>
        </mxCell>
        <mxCell id="_6P1N98d5VD0kqK_qhg6-63" value="" style="endArrow=classic;html=1;entryX=0.5;entryY=1;entryDx=0;entryDy=0;" edge="1" parent="1" source="_6P1N98d5VD0kqK_qhg6-16" target="_6P1N98d5VD0kqK_qhg6-15">
          <mxGeometry width="50" height="50" relative="1" as="geometry">
            <mxPoint x="334.99999999999955" y="-1290.0000000000002" as="sourcePoint" />
            <mxPoint x="334.99999999999955" y="-1330.0000000000002" as="targetPoint" />
          </mxGeometry>
        </mxCell>
        <mxCell id="_6P1N98d5VD0kqK_qhg6-64" value="" style="endArrow=classic;html=1;exitX=0.5;exitY=0;exitDx=0;exitDy=0;entryX=0.5;entryY=1;entryDx=0;entryDy=0;" edge="1" parent="1" source="_6P1N98d5VD0kqK_qhg6-17" target="_6P1N98d5VD0kqK_qhg6-16">
          <mxGeometry width="50" height="50" relative="1" as="geometry">
            <mxPoint x="344.99999999999955" y="-1280.0000000000002" as="sourcePoint" />
            <mxPoint x="344.99999999999955" y="-1320.0000000000002" as="targetPoint" />
          </mxGeometry>
        </mxCell>
        <mxCell id="_6P1N98d5VD0kqK_qhg6-65" value="" style="endArrow=classic;html=1;entryX=0;entryY=0.75;entryDx=0;entryDy=0;exitX=0.25;exitY=0;exitDx=0;exitDy=0;" edge="1" parent="1" source="_6P1N98d5VD0kqK_qhg6-66" target="_6P1N98d5VD0kqK_qhg6-8">
          <mxGeometry width="50" height="50" relative="1" as="geometry">
            <mxPoint x="80" y="-1150" as="sourcePoint" />
            <mxPoint x="354.99999999999955" y="-1310.0000000000002" as="targetPoint" />
          </mxGeometry>
        </mxCell>
        <mxCell id="_6P1N98d5VD0kqK_qhg6-79" value="" style="endArrow=classic;html=1;entryX=0;entryY=0.5;entryDx=0;entryDy=0;exitX=0.25;exitY=0;exitDx=0;exitDy=0;" edge="1" parent="1" source="_6P1N98d5VD0kqK_qhg6-66" target="_6P1N98d5VD0kqK_qhg6-12">
          <mxGeometry width="50" height="50" relative="1" as="geometry">
            <mxPoint x="80" y="-1150" as="sourcePoint" />
            <mxPoint x="570" y="-980" as="targetPoint" />
          </mxGeometry>
        </mxCell>
        <mxCell id="_6P1N98d5VD0kqK_qhg6-81" value="" style="endArrow=classic;html=1;entryX=0;entryY=0.5;entryDx=0;entryDy=0;" edge="1" parent="1" target="_6P1N98d5VD0kqK_qhg6-13">
          <mxGeometry width="50" height="50" relative="1" as="geometry">
            <mxPoint x="130" y="-1140" as="sourcePoint" />
            <mxPoint x="229.99999999999955" y="-1230.0000000000002" as="targetPoint" />
          </mxGeometry>
        </mxCell>
        <mxCell id="_6P1N98d5VD0kqK_qhg6-82" value="" style="endArrow=classic;html=1;entryX=0;entryY=0.5;entryDx=0;entryDy=0;exitX=0.75;exitY=0;exitDx=0;exitDy=0;" edge="1" parent="1" source="_6P1N98d5VD0kqK_qhg6-66" target="_6P1N98d5VD0kqK_qhg6-16">
          <mxGeometry width="50" height="50" relative="1" as="geometry">
            <mxPoint x="429.99999999999955" y="-1200.0000000000002" as="sourcePoint" />
            <mxPoint x="569.9999999999995" y="-1290.0000000000002" as="targetPoint" />
          </mxGeometry>
        </mxCell>
        <mxCell id="_6P1N98d5VD0kqK_qhg6-83" value="" style="endArrow=classic;html=1;exitX=0.75;exitY=0;exitDx=0;exitDy=0;entryX=0;entryY=0.5;entryDx=0;entryDy=0;" edge="1" parent="1" source="_6P1N98d5VD0kqK_qhg6-66" target="_6P1N98d5VD0kqK_qhg6-17">
          <mxGeometry width="50" height="50" relative="1" as="geometry">
            <mxPoint x="520" y="-930" as="sourcePoint" />
            <mxPoint x="570" y="-980" as="targetPoint" />
          </mxGeometry>
        </mxCell>
        <mxCell id="_6P1N98d5VD0kqK_qhg6-84" value="" style="endArrow=classic;html=1;exitX=0.25;exitY=0;exitDx=0;exitDy=0;entryX=1;entryY=0.5;entryDx=0;entryDy=0;" edge="1" parent="1" source="_6P1N98d5VD0kqK_qhg6-78" target="_6P1N98d5VD0kqK_qhg6-13">
          <mxGeometry width="50" height="50" relative="1" as="geometry">
            <mxPoint x="520" y="-930" as="sourcePoint" />
            <mxPoint x="570" y="-980" as="targetPoint" />
          </mxGeometry>
        </mxCell>
        <mxCell id="_6P1N98d5VD0kqK_qhg6-85" value="" style="endArrow=classic;html=1;entryX=1;entryY=0.5;entryDx=0;entryDy=0;" edge="1" parent="1" target="_6P1N98d5VD0kqK_qhg6-12">
          <mxGeometry width="50" height="50" relative="1" as="geometry">
            <mxPoint x="630" y="-1140" as="sourcePoint" />
            <mxPoint x="579.9999999999995" y="-970.0000000000002" as="targetPoint" />
          </mxGeometry>
        </mxCell>
        <mxCell id="_6P1N98d5VD0kqK_qhg6-86" value="" style="endArrow=classic;html=1;exitX=0.75;exitY=0;exitDx=0;exitDy=0;entryX=1;entryY=0.5;entryDx=0;entryDy=0;" edge="1" parent="1" source="_6P1N98d5VD0kqK_qhg6-78" target="_6P1N98d5VD0kqK_qhg6-17">
          <mxGeometry width="50" height="50" relative="1" as="geometry">
            <mxPoint x="539.9999999999995" y="-910.0000000000002" as="sourcePoint" />
            <mxPoint x="589.9999999999995" y="-960.0000000000002" as="targetPoint" />
          </mxGeometry>
        </mxCell>
        <mxCell id="_6P1N98d5VD0kqK_qhg6-87" value="" style="endArrow=classic;html=1;exitX=0.75;exitY=0;exitDx=0;exitDy=0;entryX=1;entryY=0.5;entryDx=0;entryDy=0;" edge="1" parent="1" source="_6P1N98d5VD0kqK_qhg6-78" target="_6P1N98d5VD0kqK_qhg6-16">
          <mxGeometry width="50" height="50" relative="1" as="geometry">
            <mxPoint x="549.9999999999995" y="-900.0000000000002" as="sourcePoint" />
            <mxPoint x="599.9999999999995" y="-950.0000000000002" as="targetPoint" />
          </mxGeometry>
        </mxCell>
        <mxCell id="_6P1N98d5VD0kqK_qhg6-88" value="" style="endArrow=classic;html=1;exitX=0.75;exitY=0;exitDx=0;exitDy=0;entryX=1;entryY=0.5;entryDx=0;entryDy=0;" edge="1" parent="1" source="_6P1N98d5VD0kqK_qhg6-78" target="_6P1N98d5VD0kqK_qhg6-15">
          <mxGeometry width="50" height="50" relative="1" as="geometry">
            <mxPoint x="559.9999999999995" y="-890.0000000000002" as="sourcePoint" />
            <mxPoint x="609.9999999999995" y="-940.0000000000002" as="targetPoint" />
          </mxGeometry>
        </mxCell>
        <mxCell id="_6P1N98d5VD0kqK_qhg6-89" value="" style="endArrow=classic;html=1;exitX=0;exitY=0.5;exitDx=0;exitDy=0;entryX=1;entryY=0.5;entryDx=0;entryDy=0;" edge="1" parent="1" source="_6P1N98d5VD0kqK_qhg6-27" target="_6P1N98d5VD0kqK_qhg6-26">
          <mxGeometry width="50" height="50" relative="1" as="geometry">
            <mxPoint x="569.9999999999995" y="-880.0000000000002" as="sourcePoint" />
            <mxPoint x="619.9999999999995" y="-930.0000000000002" as="targetPoint" />
          </mxGeometry>
        </mxCell>
        <mxCell id="_6P1N98d5VD0kqK_qhg6-91" value="" style="endArrow=classic;html=1;exitX=1;exitY=0.5;exitDx=0;exitDy=0;" edge="1" parent="1" source="_6P1N98d5VD0kqK_qhg6-29">
          <mxGeometry width="50" height="50" relative="1" as="geometry">
            <mxPoint x="579.9999999999995" y="-870.0000000000002" as="sourcePoint" />
            <mxPoint x="140" y="-970" as="targetPoint" />
          </mxGeometry>
        </mxCell>
        <mxCell id="_6P1N98d5VD0kqK_qhg6-92" value="" style="endArrow=classic;html=1;exitX=1;exitY=0.5;exitDx=0;exitDy=0;" edge="1" parent="1" source="_6P1N98d5VD0kqK_qhg6-30">
          <mxGeometry width="50" height="50" relative="1" as="geometry">
            <mxPoint x="589.9999999999995" y="-860.0000000000002" as="sourcePoint" />
            <mxPoint x="250" y="-970" as="targetPoint" />
          </mxGeometry>
        </mxCell>
        <mxCell id="_6P1N98d5VD0kqK_qhg6-93" value="" style="endArrow=classic;html=1;entryX=0;entryY=0.5;entryDx=0;entryDy=0;" edge="1" parent="1" target="_6P1N98d5VD0kqK_qhg6-31">
          <mxGeometry width="50" height="50" relative="1" as="geometry">
            <mxPoint x="300" y="-970" as="sourcePoint" />
            <mxPoint x="259.99999999999955" y="-960.0000000000002" as="targetPoint" />
          </mxGeometry>
        </mxCell>
        <mxCell id="_6P1N98d5VD0kqK_qhg6-94" value="" style="endArrow=classic;html=1;entryX=1;entryY=0.5;entryDx=0;entryDy=0;" edge="1" parent="1" target="_6P1N98d5VD0kqK_qhg6-27">
          <mxGeometry width="50" height="50" relative="1" as="geometry">
            <mxPoint x="250" y="-1040" as="sourcePoint" />
            <mxPoint x="119.99999999999955" y="-1030.0000000000002" as="targetPoint" />
          </mxGeometry>
        </mxCell>
        <mxCell id="_6P1N98d5VD0kqK_qhg6-95" value="" style="endArrow=classic;html=1;exitX=0;exitY=0.5;exitDx=0;exitDy=0;" edge="1" parent="1" source="_6P1N98d5VD0kqK_qhg6-28">
          <mxGeometry width="50" height="50" relative="1" as="geometry">
            <mxPoint x="159.99999999999955" y="-1020.0000000000002" as="sourcePoint" />
            <mxPoint x="300" y="-1040" as="targetPoint" />
          </mxGeometry>
        </mxCell>
        <mxCell id="_6P1N98d5VD0kqK_qhg6-96" value="" style="rounded=0;whiteSpace=wrap;html=1;" vertex="1" parent="1">
          <mxGeometry x="320" y="-770" width="80" height="130" as="geometry" />
        </mxCell>
        <mxCell id="_6P1N98d5VD0kqK_qhg6-97" value="" style="rounded=0;whiteSpace=wrap;html=1;" vertex="1" parent="1">
          <mxGeometry x="110" y="-770" width="80" height="130" as="geometry" />
        </mxCell>
        <mxCell id="_6P1N98d5VD0kqK_qhg6-98" value="" style="rounded=0;whiteSpace=wrap;html=1;" vertex="1" parent="1">
          <mxGeometry x="20" y="-770" width="80" height="130" as="geometry" />
        </mxCell>
        <mxCell id="_6P1N98d5VD0kqK_qhg6-99" value="" style="rounded=0;whiteSpace=wrap;html=1;" vertex="1" parent="1">
          <mxGeometry x="30" y="-760" width="60" height="40" as="geometry" />
        </mxCell>
        <mxCell id="_6P1N98d5VD0kqK_qhg6-100" value="" style="rounded=0;whiteSpace=wrap;html=1;" vertex="1" parent="1">
          <mxGeometry x="120" y="-760" width="60" height="40" as="geometry" />
        </mxCell>
        <mxCell id="_6P1N98d5VD0kqK_qhg6-101" value="" style="rounded=0;whiteSpace=wrap;html=1;" vertex="1" parent="1">
          <mxGeometry x="330" y="-760" width="60" height="40" as="geometry" />
        </mxCell>
        <mxCell id="_6P1N98d5VD0kqK_qhg6-102" value="" style="rounded=0;whiteSpace=wrap;html=1;" vertex="1" parent="1">
          <mxGeometry x="30" y="-690" width="60" height="40" as="geometry" />
        </mxCell>
        <mxCell id="_6P1N98d5VD0kqK_qhg6-103" value="" style="rounded=0;whiteSpace=wrap;html=1;" vertex="1" parent="1">
          <mxGeometry x="120" y="-690" width="60" height="40" as="geometry" />
        </mxCell>
        <mxCell id="_6P1N98d5VD0kqK_qhg6-104" value="" style="rounded=0;whiteSpace=wrap;html=1;" vertex="1" parent="1">
          <mxGeometry x="330" y="-690" width="60" height="40" as="geometry" />
        </mxCell>
        <mxCell id="_6P1N98d5VD0kqK_qhg6-105" value="" style="rounded=0;whiteSpace=wrap;html=1;" vertex="1" parent="1">
          <mxGeometry x="30" y="-620" width="60" height="40" as="geometry" />
        </mxCell>
        <mxCell id="_6P1N98d5VD0kqK_qhg6-106" value="" style="rounded=0;whiteSpace=wrap;html=1;" vertex="1" parent="1">
          <mxGeometry x="120" y="-620" width="60" height="40" as="geometry" />
        </mxCell>
        <mxCell id="_6P1N98d5VD0kqK_qhg6-107" value="" style="rounded=0;whiteSpace=wrap;html=1;" vertex="1" parent="1">
          <mxGeometry x="330" y="-620" width="60" height="40" as="geometry" />
        </mxCell>
        <mxCell id="_6P1N98d5VD0kqK_qhg6-108" value="" style="endArrow=classic;html=1;exitX=0;exitY=0.5;exitDx=0;exitDy=0;entryX=1;entryY=0.5;entryDx=0;entryDy=0;" edge="1" parent="1" source="_6P1N98d5VD0kqK_qhg6-100" target="_6P1N98d5VD0kqK_qhg6-99">
          <mxGeometry width="50" height="50" relative="1" as="geometry">
            <mxPoint x="549.9999999999995" y="-580.0000000000002" as="sourcePoint" />
            <mxPoint x="599.9999999999995" y="-630.0000000000002" as="targetPoint" />
          </mxGeometry>
        </mxCell>
        <mxCell id="_6P1N98d5VD0kqK_qhg6-109" value="" style="endArrow=classic;html=1;exitX=1;exitY=0.5;exitDx=0;exitDy=0;" edge="1" parent="1" source="_6P1N98d5VD0kqK_qhg6-102">
          <mxGeometry width="50" height="50" relative="1" as="geometry">
            <mxPoint x="559.9999999999995" y="-570.0000000000002" as="sourcePoint" />
            <mxPoint x="119.99999999999955" y="-670.0000000000002" as="targetPoint" />
          </mxGeometry>
        </mxCell>
        <mxCell id="_6P1N98d5VD0kqK_qhg6-110" value="" style="endArrow=classic;html=1;exitX=1;exitY=0.5;exitDx=0;exitDy=0;" edge="1" parent="1" source="_6P1N98d5VD0kqK_qhg6-103">
          <mxGeometry width="50" height="50" relative="1" as="geometry">
            <mxPoint x="569.9999999999995" y="-560.0000000000002" as="sourcePoint" />
            <mxPoint x="229.99999999999955" y="-670.0000000000002" as="targetPoint" />
          </mxGeometry>
        </mxCell>
        <mxCell id="_6P1N98d5VD0kqK_qhg6-111" value="" style="endArrow=classic;html=1;entryX=0;entryY=0.5;entryDx=0;entryDy=0;" edge="1" parent="1" target="_6P1N98d5VD0kqK_qhg6-104">
          <mxGeometry width="50" height="50" relative="1" as="geometry">
            <mxPoint x="279.99999999999955" y="-670.0000000000002" as="sourcePoint" />
            <mxPoint x="239.99999999999955" y="-660.0000000000002" as="targetPoint" />
          </mxGeometry>
        </mxCell>
        <mxCell id="_6P1N98d5VD0kqK_qhg6-112" value="" style="endArrow=classic;html=1;entryX=1;entryY=0.5;entryDx=0;entryDy=0;" edge="1" parent="1" target="_6P1N98d5VD0kqK_qhg6-100">
          <mxGeometry width="50" height="50" relative="1" as="geometry">
            <mxPoint x="229.99999999999955" y="-740.0000000000002" as="sourcePoint" />
            <mxPoint x="99.99999999999955" y="-730.0000000000002" as="targetPoint" />
          </mxGeometry>
        </mxCell>
        <mxCell id="_6P1N98d5VD0kqK_qhg6-113" value="" style="endArrow=classic;html=1;exitX=0;exitY=0.5;exitDx=0;exitDy=0;" edge="1" parent="1" source="_6P1N98d5VD0kqK_qhg6-101">
          <mxGeometry width="50" height="50" relative="1" as="geometry">
            <mxPoint x="139.99999999999955" y="-720.0000000000002" as="sourcePoint" />
            <mxPoint x="279.99999999999955" y="-740.0000000000002" as="targetPoint" />
          </mxGeometry>
        </mxCell>
        <mxCell id="_6P1N98d5VD0kqK_qhg6-114" value="" style="rounded=0;whiteSpace=wrap;html=1;" vertex="1" parent="1">
          <mxGeometry x="860" y="-920" width="80" height="130" as="geometry" />
        </mxCell>
        <mxCell id="_6P1N98d5VD0kqK_qhg6-115" value="" style="rounded=0;whiteSpace=wrap;html=1;" vertex="1" parent="1">
          <mxGeometry x="650" y="-920" width="80" height="130" as="geometry" />
        </mxCell>
        <mxCell id="_6P1N98d5VD0kqK_qhg6-116" value="" style="rounded=0;whiteSpace=wrap;html=1;" vertex="1" parent="1">
          <mxGeometry x="560" y="-920" width="80" height="130" as="geometry" />
        </mxCell>
        <mxCell id="_6P1N98d5VD0kqK_qhg6-117" value="" style="rounded=0;whiteSpace=wrap;html=1;" vertex="1" parent="1">
          <mxGeometry x="570" y="-910" width="60" height="40" as="geometry" />
        </mxCell>
        <mxCell id="_6P1N98d5VD0kqK_qhg6-118" value="" style="rounded=0;whiteSpace=wrap;html=1;" vertex="1" parent="1">
          <mxGeometry x="660" y="-910" width="60" height="40" as="geometry" />
        </mxCell>
        <mxCell id="_6P1N98d5VD0kqK_qhg6-119" value="" style="rounded=0;whiteSpace=wrap;html=1;" vertex="1" parent="1">
          <mxGeometry x="870" y="-910" width="60" height="40" as="geometry" />
        </mxCell>
        <mxCell id="_6P1N98d5VD0kqK_qhg6-120" value="" style="rounded=0;whiteSpace=wrap;html=1;" vertex="1" parent="1">
          <mxGeometry x="570" y="-840" width="60" height="40" as="geometry" />
        </mxCell>
        <mxCell id="_6P1N98d5VD0kqK_qhg6-121" value="" style="rounded=0;whiteSpace=wrap;html=1;" vertex="1" parent="1">
          <mxGeometry x="660" y="-840" width="60" height="40" as="geometry" />
        </mxCell>
        <mxCell id="_6P1N98d5VD0kqK_qhg6-122" value="" style="rounded=0;whiteSpace=wrap;html=1;" vertex="1" parent="1">
          <mxGeometry x="870" y="-840" width="60" height="40" as="geometry" />
        </mxCell>
        <mxCell id="_6P1N98d5VD0kqK_qhg6-123" value="" style="rounded=0;whiteSpace=wrap;html=1;" vertex="1" parent="1">
          <mxGeometry x="570" y="-770" width="60" height="40" as="geometry" />
        </mxCell>
        <mxCell id="_6P1N98d5VD0kqK_qhg6-124" value="" style="rounded=0;whiteSpace=wrap;html=1;" vertex="1" parent="1">
          <mxGeometry x="660" y="-770" width="60" height="40" as="geometry" />
        </mxCell>
        <mxCell id="_6P1N98d5VD0kqK_qhg6-125" value="" style="rounded=0;whiteSpace=wrap;html=1;" vertex="1" parent="1">
          <mxGeometry x="870" y="-770" width="60" height="40" as="geometry" />
        </mxCell>
        <mxCell id="_6P1N98d5VD0kqK_qhg6-126" value="" style="endArrow=classic;html=1;exitX=0;exitY=0.5;exitDx=0;exitDy=0;entryX=1;entryY=0.5;entryDx=0;entryDy=0;" edge="1" parent="1" source="_6P1N98d5VD0kqK_qhg6-118" target="_6P1N98d5VD0kqK_qhg6-117">
          <mxGeometry width="50" height="50" relative="1" as="geometry">
            <mxPoint x="1089.9999999999995" y="-730.0000000000002" as="sourcePoint" />
            <mxPoint x="1139.9999999999995" y="-780.0000000000002" as="targetPoint" />
          </mxGeometry>
        </mxCell>
        <mxCell id="_6P1N98d5VD0kqK_qhg6-127" value="" style="endArrow=classic;html=1;exitX=1;exitY=0.5;exitDx=0;exitDy=0;" edge="1" parent="1" source="_6P1N98d5VD0kqK_qhg6-120">
          <mxGeometry width="50" height="50" relative="1" as="geometry">
            <mxPoint x="1099.9999999999995" y="-720.0000000000002" as="sourcePoint" />
            <mxPoint x="659.9999999999995" y="-820.0000000000002" as="targetPoint" />
          </mxGeometry>
        </mxCell>
        <mxCell id="_6P1N98d5VD0kqK_qhg6-128" value="" style="endArrow=classic;html=1;exitX=1;exitY=0.5;exitDx=0;exitDy=0;" edge="1" parent="1" source="_6P1N98d5VD0kqK_qhg6-121">
          <mxGeometry width="50" height="50" relative="1" as="geometry">
            <mxPoint x="1109.9999999999995" y="-710.0000000000002" as="sourcePoint" />
            <mxPoint x="769.9999999999995" y="-820.0000000000002" as="targetPoint" />
          </mxGeometry>
        </mxCell>
        <mxCell id="_6P1N98d5VD0kqK_qhg6-129" value="" style="endArrow=classic;html=1;entryX=0;entryY=0.5;entryDx=0;entryDy=0;" edge="1" parent="1" target="_6P1N98d5VD0kqK_qhg6-122">
          <mxGeometry width="50" height="50" relative="1" as="geometry">
            <mxPoint x="819.9999999999995" y="-820.0000000000002" as="sourcePoint" />
            <mxPoint x="779.9999999999995" y="-810.0000000000002" as="targetPoint" />
          </mxGeometry>
        </mxCell>
        <mxCell id="_6P1N98d5VD0kqK_qhg6-130" value="" style="endArrow=classic;html=1;entryX=1;entryY=0.5;entryDx=0;entryDy=0;" edge="1" parent="1" target="_6P1N98d5VD0kqK_qhg6-118">
          <mxGeometry width="50" height="50" relative="1" as="geometry">
            <mxPoint x="769.9999999999995" y="-890.0000000000002" as="sourcePoint" />
            <mxPoint x="639.9999999999995" y="-880.0000000000002" as="targetPoint" />
          </mxGeometry>
        </mxCell>
        <mxCell id="_6P1N98d5VD0kqK_qhg6-131" value="" style="endArrow=classic;html=1;exitX=0;exitY=0.5;exitDx=0;exitDy=0;" edge="1" parent="1" source="_6P1N98d5VD0kqK_qhg6-119">
          <mxGeometry width="50" height="50" relative="1" as="geometry">
            <mxPoint x="679.9999999999995" y="-870.0000000000002" as="sourcePoint" />
            <mxPoint x="819.9999999999995" y="-890.0000000000002" as="targetPoint" />
          </mxGeometry>
        </mxCell>
        <mxCell id="_6P1N98d5VD0kqK_qhg6-132" value="" style="endArrow=classic;html=1;exitX=0.5;exitY=0;exitDx=0;exitDy=0;entryX=0.5;entryY=1;entryDx=0;entryDy=0;" edge="1" parent="1" source="_6P1N98d5VD0kqK_qhg6-117" target="_6P1N98d5VD0kqK_qhg6-45">
          <mxGeometry width="50" height="50" relative="1" as="geometry">
            <mxPoint x="520" y="-930" as="sourcePoint" />
            <mxPoint x="570" y="-980" as="targetPoint" />
          </mxGeometry>
        </mxCell>
        <mxCell id="_6P1N98d5VD0kqK_qhg6-133" value="" style="endArrow=classic;html=1;exitX=0.5;exitY=0;exitDx=0;exitDy=0;entryX=0.5;entryY=1;entryDx=0;entryDy=0;" edge="1" parent="1" source="_6P1N98d5VD0kqK_qhg6-118" target="_6P1N98d5VD0kqK_qhg6-45">
          <mxGeometry width="50" height="50" relative="1" as="geometry">
            <mxPoint x="520" y="-930" as="sourcePoint" />
            <mxPoint x="680" y="-1080" as="targetPoint" />
          </mxGeometry>
        </mxCell>
        <mxCell id="_6P1N98d5VD0kqK_qhg6-134" value="" style="endArrow=classic;html=1;exitX=0.5;exitY=0;exitDx=0;exitDy=0;entryX=0.5;entryY=1;entryDx=0;entryDy=0;" edge="1" parent="1" source="_6P1N98d5VD0kqK_qhg6-119" target="_6P1N98d5VD0kqK_qhg6-45">
          <mxGeometry width="50" height="50" relative="1" as="geometry">
            <mxPoint x="520" y="-930" as="sourcePoint" />
            <mxPoint x="570" y="-980" as="targetPoint" />
          </mxGeometry>
        </mxCell>
        <mxCell id="_6P1N98d5VD0kqK_qhg6-135" value="" style="endArrow=classic;html=1;exitX=0.5;exitY=0;exitDx=0;exitDy=0;entryX=0.5;entryY=1;entryDx=0;entryDy=0;" edge="1" parent="1" source="_6P1N98d5VD0kqK_qhg6-99" target="_6P1N98d5VD0kqK_qhg6-33">
          <mxGeometry width="50" height="50" relative="1" as="geometry">
            <mxPoint x="520" y="-930" as="sourcePoint" />
            <mxPoint x="570" y="-980" as="targetPoint" />
          </mxGeometry>
        </mxCell>
        <mxCell id="_6P1N98d5VD0kqK_qhg6-136" value="" style="endArrow=classic;html=1;exitX=0.5;exitY=0;exitDx=0;exitDy=0;entryX=0.5;entryY=1;entryDx=0;entryDy=0;" edge="1" parent="1" source="_6P1N98d5VD0kqK_qhg6-100" target="_6P1N98d5VD0kqK_qhg6-33">
          <mxGeometry width="50" height="50" relative="1" as="geometry">
            <mxPoint x="520" y="-930" as="sourcePoint" />
            <mxPoint x="570" y="-980" as="targetPoint" />
          </mxGeometry>
        </mxCell>
        <mxCell id="_6P1N98d5VD0kqK_qhg6-137" value="" style="endArrow=classic;html=1;exitX=0.5;exitY=0;exitDx=0;exitDy=0;entryX=0.5;entryY=1;entryDx=0;entryDy=0;" edge="1" parent="1" source="_6P1N98d5VD0kqK_qhg6-101" target="_6P1N98d5VD0kqK_qhg6-33">
          <mxGeometry width="50" height="50" relative="1" as="geometry">
            <mxPoint x="520" y="-930" as="sourcePoint" />
            <mxPoint x="570" y="-980" as="targetPoint" />
          </mxGeometry>
        </mxCell>
        <mxCell id="_6P1N98d5VD0kqK_qhg6-138" value="" style="endArrow=classic;html=1;exitX=0.5;exitY=1;exitDx=0;exitDy=0;" edge="1" parent="1" source="_6P1N98d5VD0kqK_qhg6-57">
          <mxGeometry width="50" height="50" relative="1" as="geometry">
            <mxPoint x="520" y="-930" as="sourcePoint" />
            <mxPoint x="110" y="-810" as="targetPoint" />
          </mxGeometry>
        </mxCell>
        <mxCell id="_6P1N98d5VD0kqK_qhg6-139" value="" style="endArrow=classic;html=1;" edge="1" parent="1">
          <mxGeometry width="50" height="50" relative="1" as="geometry">
            <mxPoint x="-90" y="-870" as="sourcePoint" />
            <mxPoint x="160" y="-820" as="targetPoint" />
          </mxGeometry>
        </mxCell>
        <mxCell id="_6P1N98d5VD0kqK_qhg6-140" value="" style="endArrow=classic;html=1;" edge="1" parent="1">
          <mxGeometry width="50" height="50" relative="1" as="geometry">
            <mxPoint x="-100" y="-870" as="sourcePoint" />
            <mxPoint x="240" y="-830" as="targetPoint" />
          </mxGeometry>
        </mxCell>
        <mxCell id="_6P1N98d5VD0kqK_qhg6-141" value="" style="endArrow=classic;html=1;exitX=0;exitY=0.5;exitDx=0;exitDy=0;" edge="1" parent="1" source="_6P1N98d5VD0kqK_qhg6-56">
          <mxGeometry width="50" height="50" relative="1" as="geometry">
            <mxPoint x="520" y="-930" as="sourcePoint" />
            <mxPoint x="620" y="-950" as="targetPoint" />
          </mxGeometry>
        </mxCell>
        <mxCell id="_6P1N98d5VD0kqK_qhg6-142" value="" style="endArrow=classic;html=1;" edge="1" parent="1">
          <mxGeometry width="50" height="50" relative="1" as="geometry">
            <mxPoint x="980" y="-1020" as="sourcePoint" />
            <mxPoint x="680" y="-990" as="targetPoint" />
          </mxGeometry>
        </mxCell>
        <mxCell id="_6P1N98d5VD0kqK_qhg6-143" value="" style="endArrow=classic;html=1;exitX=0;exitY=0.5;exitDx=0;exitDy=0;" edge="1" parent="1" source="_6P1N98d5VD0kqK_qhg6-56">
          <mxGeometry width="50" height="50" relative="1" as="geometry">
            <mxPoint x="520" y="-930" as="sourcePoint" />
            <mxPoint x="760" y="-1020" as="targetPoint" />
          </mxGeometry>
        </mxCell>
        <mxCell id="_6P1N98d5VD0kqK_qhg6-144" value="" style="endArrow=classic;html=1;exitX=0.5;exitY=0;exitDx=0;exitDy=0;" edge="1" parent="1" source="_6P1N98d5VD0kqK_qhg6-32" target="_6P1N98d5VD0kqK_qhg6-67">
          <mxGeometry width="50" height="50" relative="1" as="geometry">
            <mxPoint x="520" y="-930" as="sourcePoint" />
            <mxPoint x="570" y="-980" as="targetPoint" />
          </mxGeometry>
        </mxCell>
        <mxCell id="_6P1N98d5VD0kqK_qhg6-145" value="" style="endArrow=classic;html=1;exitX=0.5;exitY=0;exitDx=0;exitDy=0;entryX=0.5;entryY=1;entryDx=0;entryDy=0;" edge="1" parent="1" source="_6P1N98d5VD0kqK_qhg6-33" target="_6P1N98d5VD0kqK_qhg6-30">
          <mxGeometry width="50" height="50" relative="1" as="geometry">
            <mxPoint x="520" y="-930" as="sourcePoint" />
            <mxPoint x="570" y="-980" as="targetPoint" />
          </mxGeometry>
        </mxCell>
        <mxCell id="_6P1N98d5VD0kqK_qhg6-146" value="" style="endArrow=classic;html=1;exitX=0.5;exitY=0;exitDx=0;exitDy=0;entryX=0.5;entryY=1;entryDx=0;entryDy=0;" edge="1" parent="1" source="_6P1N98d5VD0kqK_qhg6-34" target="_6P1N98d5VD0kqK_qhg6-31">
          <mxGeometry width="50" height="50" relative="1" as="geometry">
            <mxPoint x="520" y="-930" as="sourcePoint" />
            <mxPoint x="570" y="-980" as="targetPoint" />
          </mxGeometry>
        </mxCell>
        <mxCell id="_6P1N98d5VD0kqK_qhg6-147" value="" style="endArrow=classic;html=1;exitX=0.5;exitY=0;exitDx=0;exitDy=0;entryX=0.5;entryY=1;entryDx=0;entryDy=0;" edge="1" parent="1" source="_6P1N98d5VD0kqK_qhg6-105" target="_6P1N98d5VD0kqK_qhg6-102">
          <mxGeometry width="50" height="50" relative="1" as="geometry">
            <mxPoint x="520" y="-930" as="sourcePoint" />
            <mxPoint x="570" y="-980" as="targetPoint" />
          </mxGeometry>
        </mxCell>
        <mxCell id="_6P1N98d5VD0kqK_qhg6-148" value="" style="endArrow=classic;html=1;entryX=0.5;entryY=1;entryDx=0;entryDy=0;" edge="1" parent="1" target="_6P1N98d5VD0kqK_qhg6-103">
          <mxGeometry width="50" height="50" relative="1" as="geometry">
            <mxPoint x="150" y="-621" as="sourcePoint" />
            <mxPoint x="579.9999999999995" y="-970.0000000000002" as="targetPoint" />
          </mxGeometry>
        </mxCell>
        <mxCell id="_6P1N98d5VD0kqK_qhg6-149" value="" style="endArrow=classic;html=1;exitX=0.5;exitY=0;exitDx=0;exitDy=0;entryX=0.5;entryY=1;entryDx=0;entryDy=0;" edge="1" parent="1" source="_6P1N98d5VD0kqK_qhg6-107" target="_6P1N98d5VD0kqK_qhg6-104">
          <mxGeometry width="50" height="50" relative="1" as="geometry">
            <mxPoint x="539.9999999999995" y="-910.0000000000002" as="sourcePoint" />
            <mxPoint x="589.9999999999995" y="-960.0000000000002" as="targetPoint" />
          </mxGeometry>
        </mxCell>
        <mxCell id="_6P1N98d5VD0kqK_qhg6-150" value="" style="endArrow=classic;html=1;exitX=0.5;exitY=0;exitDx=0;exitDy=0;" edge="1" parent="1" source="_6P1N98d5VD0kqK_qhg6-123">
          <mxGeometry width="50" height="50" relative="1" as="geometry">
            <mxPoint x="549.9999999999995" y="-900.0000000000002" as="sourcePoint" />
            <mxPoint x="600" y="-800" as="targetPoint" />
          </mxGeometry>
        </mxCell>
        <mxCell id="_6P1N98d5VD0kqK_qhg6-153" value="" style="endArrow=classic;html=1;exitX=0.5;exitY=0;exitDx=0;exitDy=0;entryX=0.5;entryY=1;entryDx=0;entryDy=0;" edge="1" parent="1" source="_6P1N98d5VD0kqK_qhg6-124" target="_6P1N98d5VD0kqK_qhg6-121">
          <mxGeometry width="50" height="50" relative="1" as="geometry">
            <mxPoint x="520" y="-930" as="sourcePoint" />
            <mxPoint x="570" y="-980" as="targetPoint" />
          </mxGeometry>
        </mxCell>
        <mxCell id="_6P1N98d5VD0kqK_qhg6-156" value="" style="endArrow=classic;html=1;exitX=0.5;exitY=0;exitDx=0;exitDy=0;entryX=0.5;entryY=1;entryDx=0;entryDy=0;" edge="1" parent="1" source="_6P1N98d5VD0kqK_qhg6-125" target="_6P1N98d5VD0kqK_qhg6-122">
          <mxGeometry width="50" height="50" relative="1" as="geometry">
            <mxPoint x="520" y="-930" as="sourcePoint" />
            <mxPoint x="570" y="-980" as="targetPoint" />
          </mxGeometry>
        </mxCell>
      </root>
    </mxGraphModel>
  </diagram>
</mxfile>
